<?xml version="1.0" encoding="utf-8"?>
  <!DOCTYPE svg PUBLIC "-//W3C//DTD SVG 1.1//EN" "http://www.w3.org/Graphics/SVG/1.1/DTD/svg11.dtd">
  <svg version="1.1" xmlns="http://www.w3.org/2000/svg" xmlns:xlink="http://www.w3.org/1999/xlink"   x="0" y="0"   width="16" height="16"  viewBox="0 0 1000 1000">
  <style type="text/css">
    .st0{fill:#C5C5C5;stroke:#C5C5C5;stroke-width:1.1;stroke-miterlimit:10;}
  </style>
  <path class="st0" d="M144 533L144 536 144 533ZM321 691L447 565 321 438 363 395 497 530 628 398 671 440 544 567 671 694 628 736 495 601 363 733 321 691ZM706 208L706 208 706 250 762 250 880 132 922 174 810 286 811 289Q849 388 848 494L848 494Q848 515 847 536L847 536 847 539 994 539 994 598 839 598 839 601Q820 704 768 785L768 785 766 789 908 933 866 975 730 838 726 842Q678 895 619.5 924 561 953 496.5 953 432 953 372.5 923 313 893 266 839L266 839 262 834 128 968 86 926 226 786 224 782Q174 701 155 601L155 601 155 599 0 599 0 539 147 539 147 536Q146 515 146 494L146 494Q146 387 182 292L182 292 183 288 68 173 110 131 229 250 289 250 289 208Q289 152 317 104 345 56 392.5 28 440 0 497 0 554 0 601.5 28 649 56 677.5 104 706 152 706 208ZM348 208L348 208 348 250 646 250 646 208Q646 168 626 134 606 100 572 80 538 60 497.5 60 457 60 422.5 80 388 100 368 134 348 168 348 208ZM757 314L757 314 755 310 239 310 237 314Q205 401 206 494L206 494Q206 578 230 655L230 655Q254 727 297 782L297 782Q338 836 389.5 864.5 441 893 497 893 553 893 604.5 864.5 656 836 698 782L698 782Q740 727 764 655L764 655Q789 578 789 494L789 494Q789 398 757 314Z"/>
  </svg>